<svg width="29" height="29" viewBox="0 0 29 29" fill="none" xmlns="http://www.w3.org/2000/svg">
<path d="M16.5293 24.8545V3.14844H12.4424V24.8545H16.5293ZM19.708 12.7148C23.4014 12.5332 25.9645 12.2607 27.3975 11.8975C27.8415 11.8975 28.2048 12.069 28.4873 12.4121C28.79 12.735 28.9414 13.0983 28.9414 13.502C28.9414 13.9056 28.8102 14.2588 28.5479 14.5615C28.3057 14.8643 27.7406 15.0762 26.8525 15.1973C24.7738 15.5202 22.3923 15.7422 19.708 15.8633V26.459C19.708 26.903 19.5566 27.2865 19.2539 27.6094C18.9512 27.9323 18.5677 28.0938 18.1035 28.0938H10.8379C10.3939 28.0938 10.0104 27.9323 9.6875 27.6094C9.38477 27.2865 9.2334 26.903 9.2334 26.459V15.8633C6.42806 15.722 3.80436 15.4596 1.3623 15.0762C0.454102 14.9753 0 14.3698 0 13.2598C0.0605469 12.8965 0.242188 12.5837 0.544922 12.3213C0.847656 12.0387 1.20085 11.8975 1.60449 11.8975C2.61361 12.2406 5.15658 12.513 9.2334 12.7148V1.60449C9.2334 1.18066 9.38477 0.807292 9.6875 0.484375C10.0104 0.161458 10.3939 0 10.8379 0H18.1035C18.5677 0 18.9512 0.161458 19.2539 0.484375C19.5566 0.807292 19.708 1.18066 19.708 1.60449V12.7148Z" fill="white"/>
</svg>
